<svg width="64px" height="64px" viewBox="0 0 24.00 24.00" fill="none" xmlns="http://www.w3.org/2000/svg"> <g id="SVGRepo_bgCarrier" stroke-width="0"></g> <g id="SVGRepo_tracerCarrier" stroke-linecap="round" stroke-linejoin="round"></g> <g id="SVGRepo_iconCarrier"> <path d="M7 20H4.6C4.03995 20 3.75992 20 3.54601 19.891C3.35785 19.7951 3.20487 19.6422 3.10899 19.454C3 19.2401 3 18.9601 3 18.4V9.0398C3 8.66343 3 8.47524 3.05919 8.31095C3.1115 8.16573 3.19673 8.03458 3.30819 7.9278C3.43428 7.80699 3.60625 7.73056 3.95018 7.5777L12 4L20.0498 7.5777C20.3938 7.73056 20.5657 7.80699 20.6918 7.9278C20.8033 8.03458 20.8885 8.16573 20.9408 8.31095C21 8.47524 21 8.66343 21 9.0398V18.4C21 18.9601 21 19.2401 20.891 19.454C20.7951 19.6422 20.6422 19.7951 20.454 19.891C20.2401 20 19.9601 20 19.4 20H17M7 20H17M7 20V14M17 20V14M7 14V10H17V14M7 14H17" stroke="#2fffd2" stroke-width="1.7759999999999998" stroke-linecap="round" stroke-linejoin="round"></path> </g> </svg>