<svg version="1.1" id="_x32_" xmlns="http://www.w3.org/2000/svg" xmlns:xlink="http://www.w3.org/1999/xlink" viewBox="0 0 512 512" xml:space="preserve" fill="#ffffff" transform="matrix(-1, 0, 0, 1, 0, 0)"><g id="SVGRepo_bgCarrier" stroke-width="0"></g><g id="SVGRepo_tracerCarrier" stroke-linecap="round" stroke-linejoin="round"></g><g id="SVGRepo_iconCarrier"> <style type="text/css"> .st0{fill:#ffffff;} </style> <g> <rect x="0" y="126.96" class="st0" width="158.043" height="19.222"></rect> <rect x="205.737" y="126.96" class="st0" width="158.036" height="19.222"></rect> <path class="st0" d="M510.934,123.949c-1.102-1.556-2.87-2.479-4.772-2.479h-31.245c-8.026,0-15.481,4.125-19.76,10.908 l-34.076,54.13c-3.561,5.656-9.781,9.09-16.468,9.09H190.812V126.96h-17.845v68.639h-28.67c-20.888,0-40.378,10.478-51.908,27.895 l-60.805,91.844c-9.844,14.88-10.716,33.961-2.28,49.673c8.442,15.712,24.839,25.518,42.678,25.518h159.26 c13.854,0,26.658-7.366,33.627-19.331l46.105-79.176c3.645-6.27,9.999-10.485,17.192-11.414l121.271-14.54 c8.718-1.128,16.064-7.052,19.004-15.334l43.223-121.469C512.298,127.478,512.023,125.493,510.934,123.949z M176.644,302.586 H70.112l42.198-63.745c7.046-10.646,18.876-17.006,31.642-17.006h32.692V302.586z"></path> </g> </g></svg>