<svg fill="#ffffff" viewBox="0 -28.02 122.88 122.88" version="1.1" id="Layer_1" xmlns="http://www.w3.org/2000/svg" xmlns:xlink="http://www.w3.org/1999/xlink" style="enable-background:new 0 0 122.88 66.83" xml:space="preserve" transform="matrix(-1, 0, 0, 1, 0, 0)"><g id="SVGRepo_bgCarrier" stroke-width="0"></g><g id="SVGRepo_tracerCarrier" stroke-linecap="round" stroke-linejoin="round"></g><g id="SVGRepo_iconCarrier"> <style type="text/css">.st0{fill-rule:evenodd;clip-rule:evenodd;}</style> <g> <path class="st0" d="M61.7,17.72c9.72-2.36,21.24-2.33,30.28-1.54C84.25,29.95,67.62,28.03,61.7,17.72L61.7,17.72z M25.18,57.6 l-4.13-4.13v5.72C22.58,58.99,23.98,58.43,25.18,57.6L25.18,57.6z M18.3,59.16v-5.68l-4.03,4.03 C15.44,58.35,16.81,58.92,18.3,59.16L18.3,59.16z M12.28,55.6l4.07-4.07h-5.91C10.72,53.04,11.36,54.43,12.28,55.6L12.28,55.6z M10.32,48.77h6.03l-4.41-4.41C11.06,45.64,10.49,47.14,10.32,48.77L10.32,48.77z M13.82,42.34l4.48,4.48v-6.47 C16.62,40.61,15.09,41.31,13.82,42.34L13.82,42.34z M21.06,40.31v6.5l4.58-4.58C24.34,41.22,22.77,40.54,21.06,40.31L21.06,40.31z M27.55,44.23l-4.54,4.54h6.26C29.09,47.08,28.48,45.53,27.55,44.23L27.55,44.23z M29.15,51.52h-6.14l4.2,4.2 C28.17,54.53,28.85,53.09,29.15,51.52L29.15,51.52z M110.91,57.79l-4.31-4.31v5.77C108.18,59.11,109.65,58.59,110.91,57.79 L110.91,57.79z M103.84,59.07v-5.6l-3.84,3.84C101.12,58.16,102.42,58.78,103.84,59.07L103.84,59.07z M98.08,55.33l3.04-3.04 l-4.38,0.4C97.05,53.65,97.51,54.54,98.08,55.33L98.08,55.33z M97.99,44.86l-0.22-0.22l-0.08,0.13L97.99,44.86L97.99,44.86z M99.57,42.55l3.91,3.91c0.11-0.09,0.23-0.18,0.36-0.26v-5.76C102.23,40.77,100.77,41.51,99.57,42.55L99.57,42.55z M106.6,40.26 v5.33c0.33,0.05,0.65,0.14,0.96,0.27l3.82-3.82C110.02,41.05,108.38,40.41,106.6,40.26L106.6,40.26z M113.36,43.96l-3.79,3.79 c0.16,0.32,0.28,0.66,0.34,1.02h5.36C115.09,46.97,114.4,45.32,113.36,43.96L113.36,43.96z M115.16,51.52h-5.71 c-0.11,0.19-0.23,0.36-0.37,0.52l3.93,3.93C114.08,54.73,114.84,53.21,115.16,51.52L115.16,51.52z M41.6,9.27 c1.16,0.42,1.71,1.57,1.05,2.98c-0.89,1.89-1.88,1.83-3.69,2.29l-1.15,0.29c-1.47,0.4-2.66,0.39-3.49,0.11l-1.04,0.22l-1,2.16 c4.1,1,7.87-0.59,11.39-4.15c5.05-0.79,9.93-0.31,14.59,1.87c0.42,4.29,1.72,7.56,3.73,10c6.25,7.56,17.94,6.94,25.7,2.07 c3.65-2.29,6.66-5.57,9.07-9.76c5.34-0.02,10.62,0.28,15.8,1.1l1.54,3.51C94.89,22.22,83.5,35.66,78.98,56.6H45.08 c-2.27-13.18-8.66-21.8-17.72-27.47l2.47,1.8l-1.69,3.92c5.21,2.93,8.73,8.5,8.73,14.9c0,9.43-7.65,17.08-17.08,17.08 S2.71,59.19,2.71,49.75c0-8.35,6-15.31,13.92-16.79c-4.53,0.49-9.71,2.11-15.43,4.66L0,35.32c5.1-4.62,12.93-7.45,24.42-7.88 c-3.85-2.03-8.11-3.61-12.68-4.85C17.25,11.86,24.28,4.01,33.35,0l1.32,2.19c-3.04,3.46-5.5,7.68-7.35,12.72 c0.8,0.57,1.59,1.05,2.36,1.43l1.39-2.98c0.21-0.44,0.62-0.73,1.07-0.79l0.96-0.2c0.04-0.1,0.1-0.21,0.16-0.32 c0.95-1.68,2.9-2.1,4.77-2.49C39.18,9.35,40.47,8.86,41.6,9.27L41.6,9.27z M110.49,23.7l3.55-0.49l8.46,8.9l-2.24,0.78L110.49,23.7 L110.49,23.7z M105.8,32.67c9.43,0,17.08,7.65,17.08,17.08c0,9.43-7.65,17.08-17.08,17.08c-8.18,0-15.02-5.76-16.69-13.44 l-6.08,0.56c0.77-4.4,2.23-8.49,4.22-12.33l3.06,0.92C93.03,36.71,98.94,32.67,105.8,32.67L105.8,32.67z"></path> </g> </g></svg>