<svg version="1.1" id="_x32_" xmlns="http://www.w3.org/2000/svg"
  xmlns:xlink="http://www.w3.org/1999/xlink" viewBox="0 0 512 512" xml:space="preserve"
  fill="#ffffff"><g id="SVGRepo_bgCarrier" stroke-width="0"></g><g id="SVGRepo_tracerCarrier" stroke-linecap="round" stroke-linejoin="round"></g><g id="SVGRepo_iconCarrier"> <style type="text/css">  .st0{fill:#ffffff;}  </style> <g> <path class="st0" d="M42.031,466.641c0,12.969,10.5,23.484,23.469,23.484h32.188c12.969,0,23.5-10.516,23.5-23.484v-33.578H42.031 V466.641z"></path> <path class="st0" d="M390.813,466.641c0,12.969,10.531,23.484,23.5,23.484H446.5c12.969,0,23.469-10.516,23.469-23.484v-33.578 h-79.156V466.641z"></path> <path class="st0" d="M227.313,21.875h-94.188c-4.313,0-7.813,3.516-7.813,7.828v40.734h102V21.875z"></path> <path class="st0" d="M386.688,29.703c0-4.313-3.5-7.828-7.813-7.828h-94.188v48.563h102V29.703z"></path> <rect x="240.063" y="21.875" class="st0" width="31.875" height="48.563"></rect> <path class="st0" d="M510.25,298.719c-0.688-19.875-13.844-37.172-32.813-43.156l-21.719-12.094l-31-112.75 c-5.625-20.391-24.156-34.516-45.281-34.516c0,0-47.063,0-58.094,0c-11.063,0-188.781,0-188.781,0 c-21.125,0-39.656,14.125-45.281,34.516l-31,112.75l-21.719,12.094c-18.969,5.984-32.125,23.281-32.813,43.156L0,386.266 c-0.188,8.422,3,16.594,8.906,22.625c5.875,6.047,13.969,9.453,22.406,9.453h449.375c8.438,0,16.531-3.406,22.406-9.453 c5.906-6.031,9.094-14.203,8.906-22.625L510.25,298.719z M95.406,226.203L119.25,139.5c1.625-5.984,7.125-10.156,13.313-10.156 h246.875c6.188,0,11.688,4.172,13.313,10.172l23.844,86.688c0.656,2.344,0.156,4.875-1.313,6.813s-3.781,3.078-6.219,3.078H102.938 c-2.438,0-4.75-1.141-6.219-3.078S94.75,228.547,95.406,226.203z M74.688,379.688c-21.344,0-38.656-17.313-38.656-38.656 c0-21.359,17.313-38.672,38.656-38.672s38.656,17.313,38.656,38.672C113.344,362.375,96.031,379.688,74.688,379.688z M314.906,376 H197.094v-38.656h117.813V376z M437.313,379.688c-21.375,0-38.656-17.313-38.656-38.656c0-21.359,17.281-38.672,38.656-38.672 c21.344,0,38.656,17.313,38.656,38.672C475.969,362.375,458.656,379.688,437.313,379.688z"></path> </g> </g></svg>