<svg fill="#ffffff" viewBox="0 -33.95 122.88 122.88" version="1.1" id="Layer_1"
  xmlns="http://www.w3.org/2000/svg" xmlns:xlink="http://www.w3.org/1999/xlink"
  style="enable-background:new 0 0 122.88 54.98" xml:space="preserve"
  transform="rotate(0)matrix(-1, 0, 0, 1, 0, 0)"><g id="SVGRepo_bgCarrier" stroke-width="0"></g><g id="SVGRepo_tracerCarrier" stroke-linecap="round" stroke-linejoin="round"></g><g id="SVGRepo_iconCarrier"> <style type="text/css">.st0{fill-rule:evenodd;clip-rule:evenodd;}</style> <g> <path class="st0" d="M120.11,5.33c-0.76-3.61-2.9-5.24-6.12-5.32H51.31c-4.31,0-11.56-0.28-15.03,2.64 c-5.9,4.21-10.49,11.67-15.47,16.53c-4.05,0.52-13.42,1.91-15.58,3.83c-2.49,2.22-2.46,9.37-2.43,12.4 c-4.63-0.09-2.76,11.12,0.24,11.76h6.45c-4.14-24.65,31-21.59,25.7,0h46.66c-5.43-20.67,29.19-25.49,25.86,0.26 c2.58-0.26,3.9-0.52,6.48-0.78c4.95-0.5,8.52-0.33,8.52-6.81C123.17,27,122.81,14.99,120.11,5.33L120.11,5.33z M95.01,39.37 c2.84,0,5.14,2.3,5.14,5.14c0,2.84-2.3,5.14-5.14,5.14c-2.84,0-5.14-2.3-5.14-5.14C89.87,41.68,92.17,39.37,95.01,39.37 L95.01,39.37z M47.68,4.47h-6.44c-4.27,0-9.97,6.17-13.2,12.25c-0.33,0.62-2.9,4.87-1.18,4.87h20.81v-0.65V5.12V4.47L47.68,4.47z M22.12,39.37c2.84,0,5.14,2.3,5.14,5.14c0,2.84-2.3,5.14-5.14,5.14c-2.84,0-5.14-2.3-5.14-5.14 C16.98,41.68,19.28,39.37,22.12,39.37L22.12,39.37z M22.12,34.05c5.78,0,10.46,4.68,10.46,10.46c0,5.78-4.68,10.46-10.46,10.46 s-10.46-4.68-10.46-10.46C11.66,38.74,16.35,34.05,22.12,34.05L22.12,34.05z M95.01,34.05c5.78,0,10.46,4.68,10.46,10.46 c0,5.78-4.68,10.46-10.46,10.46s-10.46-4.68-10.46-10.46C84.55,38.74,89.23,34.05,95.01,34.05L95.01,34.05z"></path> </g> </g></svg>